{
  "accessors": [
    {
      "bufferView": 2,
      "componentType": 5126,
      "count": 27351,
      "max": [
        0.15320159494876862,
        0.031198397278785706,
        0.07251212000846863
      ],
      "min": [
        -0.1469554752111435,
        -0.03710665553808212,
        0.004207059741020203
      ],
      "type": "VEC3"
    },
    {
      "bufferView": 2,
      "byteOffset": 328212,
      "componentType": 5126,
      "count": 27351,
      "max": [
        1.0,
        0.999998927116394,
        0.9999998807907104
      ],
      "min": [
        -1.0,
        -0.999998927116394,
        -0.9999945759773254
      ],
      "type": "VEC3"
    },
    {
      "bufferView": 1,
      "componentType": 5126,
      "count": 27351,
      "max": [
        0.9827306866645813,
        0.9807133674621582
      ],
      "min": [
        0.0172693133354187,
        0.010065704584121704
      ],
      "type": "VEC2"
    },
    {
      "bufferView": 1,
      "byteOffset": 218808,
      "componentType": 5126,
      "count": 27351,
      "max": [
        0.9827306866645813,
        0.9807133674621582
      ],
      "min": [
        0.0172693133354187,
        0.010065704584121704
      ],
      "type": "VEC2"
    },
    {
      "bufferView": 0,
      "componentType": 5125,
      "count": 80286,
      "type": "SCALAR"
    },
    {
      "bufferView": 2,
      "byteOffset": 656424,
      "componentType": 5126,
      "count": 60,
      "max": [
        -0.12833552062511444,
        0.023303205147385597,
        0.06461691856384277
      ],
      "min": [
        -0.12833552062511444,
        -0.029211465269327164,
        0.012102248147130013
      ],
      "type": "VEC3"
    },
    {
      "bufferView": 2,
      "byteOffset": 657144,
      "componentType": 5126,
      "count": 60,
      "max": [
        -1.0,
        1.346086886400144e-08,
        0.0
      ],
      "min": [
        -1.0,
        1.346086886400144e-08,
        0.0
      ],
      "type": "VEC3"
    },
    {
      "bufferView": 1,
      "byteOffset": 437616,
      "componentType": 5126,
      "count": 60,
      "max": [
        0.11794543266296387,
        0.40937379002571106
      ],
      "min": [
        0.0010398626327514648,
        0.2930799126625061
      ],
      "type": "VEC2"
    },
    {
      "bufferView": 0,
      "byteOffset": 321144,
      "componentType": 5125,
      "count": 174,
      "type": "SCALAR"
    }
  ],
  "asset": {
    "extras": {
      "author": "Paolajid.official (https://sketchfab.com/paolajid.official)",
      "license": "SKETCHFAB Standard (https://sketchfab.com/licenses)",
      "source": "https://sketchfab.com/3d-models/survival-flashlight-f1fb4de6714140cb9a83cc34ceff5249",
      "title": "Survival flashlight"
    },
    "generator": "Sketchfab-16.33.0",
    "version": "2.0"
  },
  "bufferViews": [
    {
      "buffer": 0,
      "byteLength": 321840,
      "name": "floatBufferViews",
      "target": 34963
    },
    {
      "buffer": 0,
      "byteLength": 438096,
      "byteOffset": 321840,
      "byteStride": 8,
      "name": "floatBufferViews",
      "target": 34962
    },
    {
      "buffer": 0,
      "byteLength": 657864,
      "byteOffset": 759936,
      "byteStride": 12,
      "name": "floatBufferViews",
      "target": 34962
    }
  ],
  "buffers": [
    {
      "byteLength": 1417800,
      "uri": "scene.bin"
    }
  ],
  "images": [
    {
      "uri": "textures/plastic_baseColor.png"
    },
    {
      "uri": "textures/plastic_metallicRoughness.png"
    }
  ],
  "materials": [
    {
      "doubleSided": true,
      "name": "plastic",
      "pbrMetallicRoughness": {
        "baseColorTexture": {
          "index": 0
        },
        "metallicRoughnessTexture": {
          "index": 1
        }
      }
    },
    {
      "doubleSided": true,
      "name": "Material",
      "pbrMetallicRoughness": {
        "baseColorFactor": [
          0.8,
          0.8,
          0.8,
          1.0
        ],
        "metallicFactor": 0.0,
        "roughnessFactor": 0.8211145618000169
      }
    }
  ],
  "meshes": [
    {
      "name": "flashlight_plastic_0",
      "primitives": [
        {
          "attributes": {
            "NORMAL": 1,
            "POSITION": 0,
            "TEXCOORD_0": 2,
            "TEXCOORD_1": 3
          },
          "indices": 4,
          "material": 0,
          "mode": 4
        }
      ]
    },
    {
      "name": "flashlight_Material_0",
      "primitives": [
        {
          "attributes": {
            "NORMAL": 6,
            "POSITION": 5,
            "TEXCOORD_0": 7
          },
          "indices": 8,
          "material": 1,
          "mode": 4
        }
      ]
    }
  ],
  "nodes": [
    {
      "children": [
        1
      ],
      "matrix": [
        1.0,
        0.0,
        0.0,
        0.0,
        0.0,
        2.220446049250313e-16,
        -1.0,
        0.0,
        0.0,
        1.0,
        2.220446049250313e-16,
        0.0,
        0.0,
        0.0,
        0.0,
        1.0
      ],
      "name": "Sketchfab_model"
    },
    {
      "children": [
        2
      ],
      "matrix": [
        0.009999999776482582,
        0.0,
        0.0,
        0.0,
        0.0,
        0.0,
        0.009999999776482582,
        0.0,
        0.0,
        -0.009999999776482582,
        0.0,
        0.0,
        0.0,
        0.0,
        0.0,
        1.0
      ],
      "name": "flashlight.fbx"
    },
    {
      "children": [
        3
      ],
      "name": "RootNode"
    },
    {
      "children": [
        4,
        5
      ],
      "matrix": [
        100.0,
        0.0,
        0.0,
        0.0,
        0.0,
        -1.629206793918314e-05,
        -99.99999999999868,
        0.0,
        0.0,
        99.99999999999868,
        -1.629206793918314e-05,
        0.0,
        0.0,
        0.0,
        0.0,
        1.0
      ],
      "name": "flashlight"
    },
    {
      "mesh": 0,
      "name": "flashlight_plastic_0"
    },
    {
      "mesh": 1,
      "name": "flashlight_Material_0"
    }
  ],
  "samplers": [
    {
      "magFilter": 9729,
      "minFilter": 9987,
      "wrapS": 10497,
      "wrapT": 10497
    }
  ],
  "scene": 0,
  "scenes": [
    {
      "name": "Sketchfab_Scene",
      "nodes": [
        0
      ]
    }
  ],
  "textures": [
    {
      "sampler": 0,
      "source": 0
    },
    {
      "sampler": 0,
      "source": 1
    }
  ]
}
